<?xml version="1.0" standalone="no"?>
<!DOCTYPE svg PUBLIC "-//W3C//DTD SVG 20010904//EN"
 "http://www.w3.org/TR/2001/REC-SVG-20010904/DTD/svg10.dtd">
<svg version="1.0" xmlns="http://www.w3.org/2000/svg"
 width="461.000000pt" height="461.000000pt" viewBox="0 0 461.000000 461.000000"
 preserveAspectRatio="xMidYMid meet">
<metadata>
Created by potrace 1.14, written by Peter Selinger 2001-2017
</metadata>
<g transform="translate(0.000000,461.000000) scale(0.100000,-0.100000)"
fill="#000000" stroke="none">
<path d="M2016 4490 c-440 -55 -896 -265 -1232 -568 -150 -134 -329 -344 -427
-500 l-60 -95 44 -38 43 -37 -34 -32 c-18 -17 -50 -40 -71 -50 -50 -26 -54
-51 -18 -122 30 -59 30 -60 14 -102 -12 -31 -14 -48 -6 -69 11 -29 22 -33 121
-42 36 -3 74 -8 85 -10 11 -2 23 -4 28 -4 17 -2 28 -47 18 -74 -10 -27 -11
-27 -108 -27 -54 0 -138 7 -188 15 -50 8 -109 15 -131 15 -40 0 -42 -1 -48
-37 -9 -58 -7 -96 8 -115 12 -16 33 -18 178 -18 147 0 167 -2 181 -18 25 -27
21 -59 -9 -79 -28 -18 -138 -20 -282 -7 -34 4 -62 2 -60 -2 1 -5 -3 -18 -9
-30 -9 -16 -12 -227 -11 -815 1 -437 -2 -828 -7 -871 -10 -101 0 -108 105 -66
69 28 251 80 275 80 6 0 31 -9 57 -18 46 -18 49 -18 136 4 134 33 133 33 226
-56 238 -229 494 -389 796 -498 230 -83 351 -104 605 -104 232 1 356 19 560
81 190 57 280 93 423 166 185 95 354 214 510 357 93 86 95 87 212 56 84 -22
140 -18 166 11 23 26 35 24 144 -17 208 -79 232 -85 249 -70 14 13 16 104 16
869 0 964 7 888 -78 902 -108 17 -178 17 -196 1 -13 -12 -29 -15 -64 -10 -62
9 -88 37 -81 86 8 45 21 48 205 49 74 0 151 5 172 10 l37 10 0 67 c0 38 -4 72
-10 78 -11 11 -157 -5 -200 -22 -14 -5 -78 -9 -142 -9 -121 1 -148 9 -148 45
0 39 33 58 123 75 48 9 92 13 97 10 4 -3 14 11 20 31 10 30 9 38 -4 53 -23 25
-20 73 9 127 38 71 34 87 -30 124 -49 28 -85 62 -85 81 0 4 14 12 30 19 48 20
40 53 -41 177 -141 214 -245 334 -429 496 -293 258 -680 450 -1020 506 -36 6
-94 16 -130 22 -85 14 -446 20 -534 9z m439 -140 c209 -20 295 -47 349 -110
38 -46 21 -57 -24 -16 -53 48 -69 55 -163 72 -185 33 -570 28 -770 -10 -58
-11 -75 -19 -111 -55 -58 -57 -86 -57 -46 -1 46 65 130 93 345 115 165 16 281
18 420 5z m-905 -119 c55 -79 57 -156 3 -149 -22 3 -30 13 -52 75 -21 60 -23
74 -12 87 20 23 37 20 61 -13z m1480 14 c15 -18 9 -52 -19 -118 -19 -43 -24
-48 -48 -45 -45 5 -42 66 7 146 21 35 41 40 60 17z m-372 -62 c71 -92 142
-205 142 -225 0 -53 -139 -428 -159 -428 -3 0 -19 12 -36 26 -16 14 -58 49
-92 77 -34 29 -62 55 -62 59 -1 3 24 46 54 95 58 93 115 246 115 308 l0 35
-367 -2 -368 -3 2 -40 c4 -65 51 -191 109 -291 30 -52 54 -98 54 -103 0 -9
-163 -149 -184 -157 -9 -3 -27 31 -55 103 -50 127 -111 305 -111 324 0 16 104
167 147 215 l28 30 383 -1 c381 0 384 0 400 -22z m-1268 -23 c31 -43 62 -119
56 -136 -3 -8 -18 -14 -34 -14 -25 0 -33 8 -61 59 -35 67 -39 95 -13 110 25
15 29 14 52 -19z m1810 -11 c0 -11 -14 -46 -30 -79 -27 -53 -34 -60 -60 -60
-42 0 -46 20 -17 84 33 73 61 100 87 86 11 -6 20 -20 20 -31z m-716 -56 c16
-10 -24 -21 -84 -23 -58 -2 -55 -4 25 -16 43 -6 46 -8 25 -15 -31 -9 -336 -11
-380 -3 -44 9 -19 23 45 25 30 1 38 3 20 6 -97 11 -117 15 -109 23 5 5 38 11
74 13 84 6 370 -2 384 -10z m-1257 -12 c10 -11 31 -44 48 -74 25 -48 27 -57
15 -71 -22 -28 -53 -14 -88 38 -43 65 -50 95 -27 113 25 17 31 17 52 -6z
m2118 4 c19 -15 19 -16 -10 -69 -42 -78 -61 -98 -87 -94 -40 5 -36 54 12 121
44 60 53 65 85 42z m-2230 -147 c48 -66 52 -77 33 -96 -22 -22 -46 -12 -87 36
-61 70 -68 122 -16 122 19 0 35 -14 70 -62z m2385 47 c16 -19 9 -35 -38 -95
-48 -62 -66 -74 -92 -60 -27 14 -25 36 7 79 65 89 96 108 123 76z m-1825 -72
c4 -16 11 -46 16 -68 6 -22 12 -53 15 -69 2 -16 9 -43 14 -60 28 -85 61 -217
67 -263 3 -29 8 -53 10 -53 2 0 33 25 68 55 36 30 74 55 84 55 14 0 18 5 14
20 -13 51 29 8 122 -120 55 -77 115 -160 134 -185 l34 -45 63 87 c175 243 205
283 215 283 12 0 11 -17 -2 -41 -9 -18 -8 -19 10 -7 18 11 24 9 49 -15 15 -15
33 -27 38 -27 6 0 23 -13 39 -30 16 -16 32 -30 36 -30 4 0 10 17 14 38 4 20
22 89 40 152 18 63 43 165 55 225 13 61 26 113 29 117 7 7 21 1 306 -137 190
-92 203 -100 276 -173 68 -68 84 -92 138 -205 34 -70 78 -167 97 -215 40 -96
151 -347 192 -432 14 -30 25 -61 24 -68 -2 -7 13 -41 33 -77 19 -35 35 -71 35
-80 0 -17 -103 -96 -170 -130 -51 -25 -201 -77 -207 -71 -2 2 29 20 69 41 70
36 118 68 73 50 -73 -31 -256 -87 -294 -90 -25 -2 -37 -2 -26 1 35 10 38 21
15 53 -12 17 -23 45 -25 62 -3 18 -7 34 -9 37 -3 2 -34 -3 -69 -13 -78 -21
-113 -14 -42 8 96 31 140 49 202 84 35 19 63 37 63 39 0 2 -44 -12 -97 -32
-162 -59 -214 -76 -219 -72 -2 3 -10 29 -18 57 -12 47 -12 53 3 58 48 15 173
68 221 93 l55 29 -52 1 c-29 0 -53 -4 -53 -10 0 -5 -9 -6 -22 -1 -28 10 -41
56 -39 134 2 67 -6 68 -46 4 -23 -37 -27 -39 -34 -22 -6 16 -8 13 -10 -15 -1
-25 -3 -29 -6 -12 -6 32 34 211 68 306 16 44 27 81 25 83 -2 2 -30 -37 -62
-87 -32 -50 -60 -87 -62 -81 -5 15 35 151 74 252 19 48 34 91 34 95 0 13 -37
-41 -74 -108 -42 -75 -56 -90 -48 -53 2 14 0 25 -5 25 -6 0 -16 28 -24 63
l-14 62 -6 -55 c-4 -30 -7 -125 -8 -211 -1 -86 -4 -185 -8 -220 l-7 -64 -7 45
c-4 25 -8 78 -8 119 -1 41 -4 71 -7 68 -4 -4 -6 -154 -6 -334 0 -210 -3 -317
-9 -298 -12 40 -39 330 -39 418 0 50 -3 68 -12 65 -21 -7 -26 -54 -27 -289
l-1 -226 -30 0 c-27 0 -31 5 -41 40 -6 21 -8 45 -5 52 2 7 -2 16 -10 19 -8 3
-14 12 -14 19 0 16 -45 163 -57 187 -5 8 -10 -57 -13 -145 l-5 -160 -19 40
c-19 39 -52 177 -63 263 l-6 42 -14 -27 c-12 -23 -14 -56 -9 -180 l7 -151 -30
-7 c-40 -9 -51 -1 -52 38 -2 29 -2 30 -6 5 -4 -28 -22 -37 -60 -30 -28 5 -31
15 -45 134 -6 54 -15 98 -19 98 -11 0 -19 -58 -19 -146 0 -45 -4 -86 -10 -89
-6 -4 -11 6 -11 22 l-1 28 -7 -30 c-6 -28 -9 -30 -51 -30 l-45 0 -11 70 -11
70 -2 -62 c-1 -43 -5 -63 -14 -63 -8 0 -12 15 -10 48 2 40 1 42 -6 17 -6 -23
-9 -11 -10 50 -1 44 -4 94 -5 110 -2 17 -4 52 -5 79 -2 78 -8 50 -15 -64 -12
-200 -17 -238 -33 -244 -23 -9 -33 2 -34 37 -1 19 -3 24 -6 12 -15 -73 -10
-68 -64 -63 -27 3 -52 8 -55 11 -3 3 -10 70 -15 149 -11 163 -16 198 -18 117
-1 -66 -20 -216 -31 -244 -6 -15 -17 -20 -46 -20 -35 0 -39 3 -42 28 -2 16 4
39 13 53 15 24 15 24 -4 12 -14 -9 -21 -25 -23 -58 -2 -36 -7 -45 -23 -48 -41
-5 -44 7 -46 163 0 83 -6 177 -13 210 l-13 60 -7 -75 c-8 -82 -51 -314 -61
-330 -16 -27 -20 2 -17 146 3 142 -1 195 -13 182 -3 -2 -18 -56 -34 -119 -37
-145 -64 -215 -81 -211 -7 2 -17 -3 -22 -10 -18 -28 -23 15 -25 194 -3 235
-14 415 -23 397 -4 -8 -10 -84 -14 -169 -3 -85 -11 -198 -16 -250 -28 -274
-38 -238 -34 128 2 183 0 297 -5 282 -5 -14 -9 -44 -10 -67 -1 -24 -5 -43 -11
-43 -6 0 -10 63 -11 168 -1 92 -4 212 -8 267 l-7 100 -8 -60 c-5 -33 -15 -75
-23 -92 l-15 -33 -40 59 c-78 116 -82 106 -23 -64 31 -87 54 -160 51 -162 -2
-2 -28 27 -57 66 -30 38 -57 70 -62 70 -4 1 0 -16 9 -36 25 -57 62 -186 70
-243 5 -41 4 -51 -10 -56 -12 -5 -27 4 -47 27 l-30 34 6 -47 c3 -25 2 -49 -3
-52 -6 -3 -13 -22 -16 -41 -4 -19 -12 -35 -18 -35 -5 0 -8 -7 -5 -14 4 -10 1
-13 -9 -9 -18 7 -18 9 3 44 13 23 15 31 5 41 -9 9 -12 7 -12 -12 -1 -28 -26
-67 -37 -56 -4 4 -2 16 5 26 7 11 12 27 12 35 0 9 7 18 15 21 9 4 15 11 14 18
-1 6 1 24 6 39 4 15 5 30 3 33 -3 2 -20 -36 -38 -85 l-33 -89 -34 5 c-18 3
-33 3 -33 -1 0 -10 132 -69 215 -96 39 -12 72 -24 73 -26 7 -5 -29 -114 -38
-114 -10 0 -205 66 -217 73 -5 3 -34 15 -64 26 -41 16 -49 17 -34 5 35 -27
167 -91 230 -110 33 -10 65 -22 70 -27 14 -13 -103 3 -142 19 -37 14 -185 16
-158 2 8 -5 34 -11 58 -14 23 -3 61 -12 85 -21 40 -15 41 -17 27 -33 -13 -14
-13 -19 -3 -23 8 -3 0 -11 -19 -18 -18 -8 -33 -16 -33 -20 0 -3 15 -11 33 -17
l32 -10 -31 -1 c-53 -2 -266 64 -355 110 -23 11 -43 18 -46 15 -5 -4 23 -20
157 -88 73 -37 39 -35 -60 3 -80 31 -210 109 -243 147 -18 20 -18 22 23 91 22
39 39 75 36 80 -3 5 13 49 35 97 22 49 47 103 54 119 8 17 61 139 119 273 57
134 123 275 147 315 56 94 147 181 255 242 77 43 398 193 416 194 4 1 10 -11
13 -26z m-701 -75 c49 -56 59 -93 26 -103 -26 -8 -51 7 -94 57 -38 44 -44 66
-24 86 22 22 46 12 92 -40z m2664 40 c22 -22 12 -45 -42 -97 -54 -50 -77 -59
-105 -42 -26 16 2 61 77 124 37 30 52 33 70 15z m-2822 -140 c16 -12 48 -39
71 -61 34 -33 40 -44 32 -59 -16 -29 -52 -21 -113 25 -63 47 -80 82 -51 104
25 17 27 17 61 -9z m2952 6 c18 -12 20 -19 12 -34 -15 -28 -125 -110 -148
-110 -29 0 -46 24 -33 48 10 19 126 112 140 112 3 0 17 -7 29 -16z m-1635
-152 c95 -120 112 -141 118 -142 3 0 28 30 56 68 29 37 66 80 83 97 l30 29 32
-31 c31 -32 31 -32 13 -60 -46 -72 -201 -273 -211 -273 -18 0 -224 272 -224
296 0 17 40 64 53 64 7 0 29 -21 50 -48z m-1434 -70 c96 -55 112 -72 91 -97
-20 -24 -61 -13 -147 41 -72 45 -87 66 -61 92 18 18 26 16 117 -36z m3236 28
c18 -20 18 -21 -6 -44 -34 -34 -153 -96 -182 -96 -30 0 -42 26 -24 53 11 16
169 106 188 107 3 0 14 -9 24 -20z m-3312 -177 c89 -43 98 -49 95 -72 -5 -41
-43 -38 -152 13 -97 45 -114 64 -84 94 19 19 37 15 141 -35z m3418 31 c25 -30
-8 -57 -134 -107 -79 -32 -103 -34 -116 -8 -13 24 16 51 89 80 30 12 66 28 80
36 33 19 65 19 81 -1z m49 -244 c9 -22 22 -33 42 -37 39 -8 44 -20 19 -54 -11
-15 -21 -42 -21 -60 0 -26 -3 -30 -17 -23 -21 9 -57 9 -95 -1 -26 -7 -27 -6
-21 29 5 30 1 40 -21 62 -29 30 -26 44 9 44 18 0 32 12 51 40 29 44 36 44 54
0z m-3611 0 c9 -21 22 -33 42 -37 40 -8 45 -20 20 -47 -14 -15 -21 -35 -21
-60 0 -35 -2 -38 -22 -31 -29 10 -67 10 -95 0 -21 -7 -23 -4 -23 32 0 27 -6
46 -20 58 -29 27 -25 45 10 45 24 0 35 7 51 35 26 43 40 44 58 5z m2846 -430
c3 -5 2 -10 -4 -10 -5 0 -13 5 -16 10 -3 6 -2 10 4 10 5 0 13 -4 16 -10z
m-1548 -231 c-7 -87 -15 -111 -28 -86 -6 9 -3 31 6 57 8 23 15 58 15 76 0 19
3 34 6 34 4 0 4 -36 1 -81z m2621 -921 c-2 -476 -6 -722 -13 -721 -5 1 -68 22
-140 47 -201 70 -431 133 -654 182 -113 24 -214 44 -225 44 -12 0 -27 4 -35 9
-19 12 -6 58 18 66 17 5 245 -36 391 -71 101 -24 461 -131 519 -154 28 -11 56
-20 61 -20 6 0 10 235 10 635 l0 635 -2050 0 -2050 0 0 -635 c0 -400 4 -635
10 -635 5 0 33 9 62 19 29 11 114 38 188 61 74 23 146 46 160 51 37 13 248 64
383 93 129 28 157 25 157 -19 0 -27 6 -25 -155 -60 -240 -52 -402 -97 -619
-170 -121 -42 -228 -76 -236 -78 -13 -2 -15 85 -18 721 l-2 722 2120 0 2120 0
-2 -722z m-2660 550 c43 -20 72 -90 72 -170 l0 -68 -90 0 -90 0 0 36 c0 34 -1
35 -32 32 -31 -3 -33 -5 -36 -48 l-3 -45 97 -55 c142 -81 160 -112 148 -262
-11 -147 -62 -192 -230 -204 -107 -8 -147 7 -170 61 -15 37 -19 170 -6 179 5
3 43 8 85 12 l77 7 0 -47 c0 -44 1 -46 28 -46 47 0 56 13 48 65 -7 54 -10 57
-118 120 -109 64 -122 85 -126 212 -3 65 0 114 8 132 17 43 70 89 115 100 50
13 187 6 223 -11z m926 12 c43 -7 68 -17 89 -37 56 -54 57 -60 57 -344 0 -245
-1 -266 -21 -305 -32 -68 -68 -84 -183 -84 -139 0 -213 38 -236 119 -13 46
-13 512 -1 544 14 37 77 95 114 106 43 12 110 13 181 1z m1485 -15 c67 -34 91
-93 91 -225 l0 -100 -37 0 c-21 0 -61 3 -90 6 l-52 7 -3 66 -3 66 -35 0 -35 0
-3 -57 c-4 -73 7 -92 113 -202 48 -49 99 -108 113 -130 26 -40 27 -45 27 -196
0 -134 -3 -160 -18 -184 -23 -34 -72 -56 -112 -49 -120 18 -216 54 -251 94
-36 40 -54 111 -54 214 0 52 3 95 6 95 15 0 150 -44 158 -51 6 -5 11 -37 13
-71 2 -34 7 -65 11 -69 4 -4 22 -10 40 -14 l32 -7 0 56 c0 30 -5 67 -10 82 -6
14 -55 73 -109 131 -128 134 -141 162 -141 295 0 57 5 119 10 139 14 48 67
106 110 118 44 13 195 4 229 -14z m-3446 4 c26 -14 45 -33 72 -74 19 -29 20
-45 18 -371 -2 -337 -2 -342 -26 -396 -14 -31 -38 -64 -54 -76 -27 -19 -352
-127 -359 -119 -2 2 -5 238 -6 525 l-3 522 168 0 c106 0 176 -4 190 -11z m329
-74 c29 -46 56 -84 60 -85 4 0 23 28 42 63 56 100 65 107 146 107 l69 0 3
-407 c2 -225 2 -410 1 -412 -4 -7 -173 -28 -178 -22 -3 2 -5 89 -5 193 0 126
-3 187 -10 183 -6 -4 -22 -29 -35 -56 -14 -27 -29 -49 -34 -49 -5 0 -21 25
-37 55 -16 30 -32 55 -35 55 -4 0 -6 -93 -6 -207 l0 -207 -36 -12 c-32 -11
-128 -29 -135 -26 -1 1 -4 199 -6 439 -2 241 -7 446 -11 456 -6 15 1 17 73 17
l80 0 54 -85z m1233 54 c47 -41 58 -88 53 -224 -5 -129 -19 -165 -78 -195 -21
-11 -70 -23 -109 -26 l-71 -7 0 -132 0 -132 -61 -7 c-34 -3 -77 -6 -95 -6
l-34 0 0 364 c0 200 -3 371 -6 380 -5 14 14 16 180 16 l185 0 36 -31z m1000 1
c48 -45 55 -70 55 -203 0 -116 -2 -127 -25 -161 -22 -33 -24 -39 -11 -59 12
-19 46 -283 46 -359 l0 -25 -92 14 c-50 7 -93 15 -95 16 -1 2 -12 73 -24 158
-26 187 -24 179 -49 179 -19 0 -20 -6 -20 -166 l0 -166 -37 6 c-21 3 -64 8
-95 12 l-58 6 -2 385 c-2 212 -1 387 2 389 2 3 89 4 191 2 184 -3 188 -3 214
-28z m525 -65 l0 -95 -60 0 -60 0 0 -355 0 -355 -27 1 c-16 1 -57 8 -93 17
l-65 17 -3 338 -2 337 -65 0 -65 0 0 95 0 95 220 0 220 0 0 -95z m-1830 -750
c0 -3 -33 -36 -73 -74 -130 -124 -184 -252 -175 -417 2 -46 2 -84 0 -84 -19 0
-197 162 -242 219 -73 93 -172 271 -160 286 12 14 139 31 415 54 116 10 216
19 223 20 6 0 12 -1 12 -4z m825 -15 c179 -11 405 -37 417 -48 11 -11 -57
-147 -116 -230 -65 -92 -173 -206 -238 -250 -26 -18 -49 -32 -51 -32 -3 0 -2
38 1 85 9 155 -52 302 -175 420 -34 33 -63 64 -63 67 0 4 12 5 28 3 15 -2 104
-9 197 -15z m-710 -56 c-28 -23 -29 -26 -12 -38 23 -18 22 -26 -11 -72 -16
-21 -41 -61 -57 -88 -22 -38 -40 -54 -82 -73 -86 -40 -118 -15 -79 60 57 114
187 234 256 236 9 0 3 -10 -15 -25z m406 -15 c66 -42 119 -95 153 -154 l29
-49 -39 -33 c-21 -18 -46 -33 -55 -33 -20 0 -149 48 -166 61 -14 13 -93 144
-93 157 0 5 20 17 45 28 47 19 55 31 30 40 -8 4 -15 11 -15 16 0 18 61 0 111
-33z m-210 -58 c12 -2 99 -139 99 -158 0 -10 -18 -46 -40 -80 l-39 -63 -101 0
-100 0 -40 62 c-22 33 -40 69 -40 79 0 20 60 119 90 149 18 18 65 21 171 11z
m-1031 -120 c24 -46 -5 -61 -223 -118 -129 -34 -154 -37 -274 -38 -155 0 -192
14 -86 34 67 12 236 54 448 111 133 35 122 34 135 11z m2259 -32 c108 -28 252
-62 320 -75 68 -13 126 -26 128 -28 3 -2 -5 -10 -18 -16 -15 -9 -62 -11 -153
-7 -112 4 -155 11 -290 46 -179 47 -209 58 -214 84 -3 16 13 47 25 47 3 0 94
-23 202 -51z m-790 -168 c1 -63 -24 -181 -39 -181 -4 0 -26 22 -48 49 -42 49
-42 50 -42 129 l0 80 47 42 47 41 17 -48 c10 -26 18 -77 18 -112z m-856 -29
c8 -78 7 -107 -3 -131 -7 -18 -18 -30 -24 -28 -28 9 -47 207 -26 263 10 25 12
26 27 11 11 -11 19 -48 26 -115z m-529 103 c10 -28 -6 -45 -89 -90 -91 -50
-110 -54 -125 -26 -16 31 -4 46 73 89 76 42 131 53 141 27z m1997 -22 c79 -42
102 -63 93 -86 -12 -32 -42 -28 -128 15 -87 43 -108 66 -86 93 19 23 46 18
121 -22z m-972 -120 c34 -37 61 -77 60 -88 0 -11 -10 -47 -23 -80 l-23 -60
-83 -8 c-46 -5 -93 -6 -105 -3 -21 5 -109 89 -140 132 -13 19 -11 28 19 91 19
39 40 73 48 76 7 3 52 6 100 6 l86 1 61 -67z m-931 13 c4 -21 -54 -86 -106
-118 l-34 -21 -20 20 c-26 27 -15 48 54 102 56 45 100 52 106 17z m1800 -26
c67 -55 78 -83 38 -102 -22 -10 -31 -5 -89 41 -70 55 -84 76 -66 97 21 25 53
15 117 -36z m-636 -46 c7 -9 28 -31 47 -48 l33 -33 -18 -34 c-31 -60 -125
-143 -198 -174 -36 -15 -69 -25 -73 -21 -7 7 -1 12 37 36 13 8 12 14 -6 48
l-21 39 29 74 c35 87 36 88 91 111 53 21 63 22 79 2z m-1045 -9 c27 -19 23
-33 -26 -97 -27 -37 -42 -48 -62 -48 -40 0 -48 33 -18 74 32 43 71 86 78 86 4
0 16 -7 28 -15z m1518 -27 c50 -58 61 -83 45 -103 -21 -25 -47 -17 -85 27 -41
49 -53 82 -35 103 20 24 36 18 75 -27z m-1082 5 c14 -4 157 -155 157 -167 0
-2 -7 -21 -16 -41 -15 -38 -15 -38 13 -62 l28 -24 -30 6 c-65 14 -142 61 -207
127 -85 86 -89 100 -47 144 33 34 38 35 102 17z m-290 -219 c29 -15 73 -42 98
-60 118 -86 244 -125 428 -131 229 -9 361 24 508 128 90 63 201 109 191 78 -2
-7 -31 -24 -64 -37 -32 -13 -81 -41 -109 -62 -69 -52 -115 -74 -225 -104 -117
-33 -281 -44 -397 -27 -119 17 -261 70 -333 124 -34 25 -86 55 -116 67 -30 12
-54 29 -54 36 0 20 14 18 73 -12z"/>
<path d="M1761 3854 c0 -11 3 -14 6 -6 3 7 2 16 -1 19 -3 4 -6 -2 -5 -13z"/>
<path d="M1776 3805 c9 -38 55 -157 60 -153 3 4 -55 170 -62 178 -3 3 -2 -9 2
-25z"/>
<path d="M2692 3733 c-16 -42 -24 -73 -19 -73 7 0 38 92 33 97 -2 2 -8 -9 -14
-24z"/>
<path d="M1899 3463 c-13 -16 -12 -17 4 -4 9 7 17 15 17 17 0 8 -8 3 -21 -13z"/>
<path d="M2700 3330 c-30 -11 -85 -19 -121 -19 l-66 -1 -6 -67 c-8 -85 -9
-217 -1 -263 6 -33 11 -38 124 -93 l119 -58 88 45 c48 25 100 50 116 55 l27
11 0 183 0 184 -67 6 c-38 3 -85 13 -105 21 -44 19 -38 19 -108 -4z m101 -22
c19 -6 61 -17 94 -22 l60 -11 3 -158 3 -158 -31 -10 c-17 -6 -66 -28 -109 -49
l-78 -38 -40 23 c-22 12 -68 33 -102 46 -42 16 -63 31 -67 44 -3 11 -3 83 -2
160 l3 140 75 11 c41 7 91 17 110 22 47 14 42 14 81 0z"/>
<path d="M2690 3265 c-30 -7 -72 -14 -92 -14 l-38 -1 2 -137 2 -138 3 128 4
127 30 0 c46 0 97 -26 104 -52 3 -13 5 -55 3 -93 l-3 -70 -65 -22 c-36 -12
-58 -22 -50 -22 9 -1 47 -16 85 -34 l70 -34 81 39 c45 21 87 38 93 38 8 0 11
39 9 132 l-3 132 -85 17 c-47 10 -87 17 -90 17 -3 0 -30 -6 -60 -13z m228
-151 c3 -118 2 -122 -19 -127 -33 -9 -39 -1 -39 51 l0 47 -20 -32 c-11 -18
-22 -33 -25 -33 -3 0 -11 15 -18 33 l-12 32 -5 -50 c-4 -42 -8 -50 -25 -50
-19 0 -20 8 -23 123 -2 114 -1 123 15 120 10 -2 30 -25 44 -51 l26 -48 13 31
c19 46 50 81 69 78 14 -3 16 -22 19 -124z"/>
<path d="M2620 3110 c0 -63 2 -71 18 -68 13 2 18 15 20 60 3 49 0 58 -18 68
-19 10 -20 8 -20 -60z"/>
<path d="M2480 2717 c0 -31 4 -58 9 -61 9 -6 6 102 -3 112 -4 3 -6 -20 -6 -51z"/>
<path d="M2001 2709 c-1 -32 -15 -86 -36 -144 l-7 -20 15 20 c19 26 40 122 34
155 -3 19 -5 17 -6 -11z"/>
<path d="M2921 2654 c0 -11 3 -14 6 -6 3 7 2 16 -1 19 -3 4 -6 -2 -5 -13z"/>
<path d="M3400 2501 c13 -9 12 -11 -5 -11 -19 -1 -19 -1 -1 -11 10 -6 21 -7
25 -3 3 5 23 9 44 10 21 0 43 6 50 14 10 10 7 11 -13 5 -33 -9 -49 -9 -85 -1
-23 6 -26 5 -15 -3z"/>
<path d="M2595 2480 c3 -5 8 -10 11 -10 2 0 4 5 4 10 0 6 -5 10 -11 10 -5 0
-7 -4 -4 -10z"/>
<path d="M2544 1945 c-3 -8 -3 -103 -1 -212 6 -214 6 -213 60 -199 24 6 23
-18 17 409 0 22 -68 25 -76 2z"/>
<path d="M537 1944 c-7 -7 -10 -624 -3 -624 22 0 69 27 76 44 6 18 3 567 -3
572 -9 7 -65 13 -70 8z"/>
<path d="M2060 1889 c0 -69 1 -71 23 -65 12 3 30 6 40 6 14 0 17 10 17 65 l0
65 -40 0 -40 0 0 -71z"/>
<path d="M3050 1900 l0 -50 39 0 39 0 4 46 c2 25 1 47 -1 50 -2 2 -22 4 -43 4
l-38 0 0 -50z"/>
<path d="M1550 1148 c-34 -37 -23 -62 36 -83 54 -18 52 -41 -3 -37 -55 3 -60
-23 -7 -32 45 -9 84 14 84 49 0 25 -22 40 -84 59 -15 5 -16 9 -6 21 9 11 23
14 46 9 38 -7 47 9 15 26 -31 16 -58 12 -81 -12z"/>
<path d="M2882 1154 c-24 -17 -30 -58 -9 -71 6 -4 27 -12 45 -18 44 -13 37
-30 -12 -31 -22 0 -41 -5 -43 -11 -5 -14 3 -19 43 -27 25 -6 38 -2 60 17 27
24 28 25 11 50 -11 17 -30 29 -52 33 -26 5 -35 11 -33 23 3 12 13 15 41 13 40
-3 49 11 18 28 -27 14 -43 13 -69 -6z"/>
</g>
</svg>
